<svg width="11" height="8" viewBox="0 0 11 8" fill="none" xmlns="http://www.w3.org/2000/svg">
<path d="M10.5805 1.97493C10.8428 1.65434 10.7955 1.18183 10.4749 0.919532C10.1543 0.657237 9.68183 0.704488 9.41953 1.02507L10.5805 1.97493ZM5.5 7L4.91953 7.47493C5.06198 7.64903 5.27505 7.75 5.5 7.75C5.72495 7.75 5.93802 7.64903 6.08047 7.47493L5.5 7ZM1.58047 1.02507C1.31817 0.704489 0.845655 0.657236 0.525072 0.919532C0.204487 1.18183 0.157236 1.65434 0.419531 1.97493L1.58047 1.02507ZM9.41953 1.02507L4.91953 6.52507L6.08047 7.47493L10.5805 1.97493L9.41953 1.02507ZM6.08047 6.52507L1.58047 1.02507L0.419531 1.97493L4.91953 7.47493L6.08047 6.52507Z" fill="#929292"/>
</svg>
