<svg width="68" height="68" viewBox="0 0 68 68" fill="none" xmlns="http://www.w3.org/2000/svg">
<circle cx="34" cy="34" r="33.5" stroke="#7B7D7E"/>
<path d="M38.9688 18.7773C32.8145 18.7773 27.7634 23.0204 27.3728 28.365C21.5117 28.659 16 32.8853 16 38.6016C16 40.9904 16.9453 43.305 18.666 45.139C19.0065 46.5425 18.5931 48.0301 17.5675 49.0557C17.372 49.2512 17.3135 49.5452 17.4193 49.8008C17.525 50.056 17.7741 50.2227 18.0508 50.2227C20.0004 50.2227 21.8792 49.4582 23.2752 48.111C24.6352 48.5746 26.4096 48.8555 28.0312 48.8555C34.1847 48.8555 39.2352 44.6134 39.627 39.2699C41.0583 39.2064 42.5469 38.942 43.7248 38.5407C45.1208 39.8878 46.9996 40.6523 48.9492 40.6523C49.2259 40.6523 49.475 40.4857 49.5807 40.2304C49.6865 39.9749 49.628 39.6809 49.4325 39.4854C48.4069 38.4598 47.9935 36.9722 48.334 35.5686C50.0547 33.7347 51 31.4201 51 29.0312C51 23.0917 45.0637 18.7773 38.9688 18.7773ZM28.0312 47.4883C26.4179 47.4883 24.5794 47.1716 23.3478 46.6816C23.084 46.5764 22.7825 46.6455 22.5905 46.8552C21.7652 47.7574 20.692 48.3866 19.5226 48.6758C20.167 47.4413 20.3315 45.986 19.9395 44.607C19.9085 44.4984 19.8511 44.399 19.7723 44.3181C18.2214 42.7207 17.3672 40.6905 17.3672 38.6016C17.3672 33.7844 22.2506 29.7148 28.0312 29.7148C33.4899 29.7148 38.2852 33.5107 38.2852 38.6016C38.2852 43.5018 33.6853 47.4883 28.0312 47.4883ZM47.2277 34.7478C47.1489 34.829 47.0915 34.9283 47.0605 35.0367C46.6685 36.4157 46.833 37.871 47.4774 39.1054C46.308 38.8165 45.2348 38.1871 44.4095 37.2848C44.2175 37.0755 43.916 37.0061 43.6522 37.1113C42.5849 37.5359 41.0623 37.8298 39.6248 37.9009C39.4251 35.3158 38.1356 32.8861 35.931 31.082H44.8477C45.2252 31.082 45.5312 30.776 45.5312 30.3984C45.5312 30.0209 45.2252 29.7148 44.8477 29.7148H33.8308C32.2791 28.925 30.5368 28.4643 28.7434 28.3677C29.1362 23.7764 33.5724 20.1445 38.9688 20.1445C44.7494 20.1445 49.6328 24.2141 49.6328 29.0312C49.6328 31.1202 48.7786 33.1504 47.2277 34.7478Z" fill="#7B7D7E"/>
<path d="M33.5 36.5508H24.8867C24.5091 36.5508 24.2031 36.8568 24.2031 37.2344C24.2031 37.612 24.5091 37.918 24.8867 37.918H33.5C33.8776 37.918 34.1836 37.612 34.1836 37.2344C34.1836 36.8568 33.8776 36.5508 33.5 36.5508Z" fill="#7B7D7E"/>
<path d="M33.5 40.6523H22.1523C21.7748 40.6523 21.4688 40.9584 21.4688 41.3359C21.4688 41.7135 21.7748 42.0195 22.1523 42.0195H33.5C33.8776 42.0195 34.1836 41.7135 34.1836 41.3359C34.1836 40.9584 33.8776 40.6523 33.5 40.6523Z" fill="#7B7D7E"/>
<path d="M44.8477 25.6133H36.2344C35.8568 25.6133 35.5508 25.9193 35.5508 26.2969C35.5508 26.6745 35.8568 26.9805 36.2344 26.9805H44.8477C45.2252 26.9805 45.5312 26.6745 45.5312 26.2969C45.5312 25.9193 45.2252 25.6133 44.8477 25.6133Z" fill="#7B7D7E"/>
</svg>
