<svg width="68" height="68" viewBox="0 0 68 68" fill="none" xmlns="http://www.w3.org/2000/svg">
<circle cx="34" cy="34" r="33.5" stroke="#7B7D7E"/>
<g clip-path="url(#clip0)">
<path d="M49.4154 25.7114L49.8235 25.3033C50.06 25.0668 50.06 24.6834 49.8235 24.447C49.5871 24.2106 49.2037 24.2106 48.9672 24.447L48.5591 24.8551L48.1512 24.4472C48.0377 24.3337 47.8836 24.2699 47.7231 24.2699H47.0571L43.9646 21.1773C43.851 21.0638 43.697 21 43.5365 21H21.1815C19.9792 21 19.001 21.9781 19.001 23.1805V34.5269C19.001 35.7292 19.9792 36.7074 21.1815 36.7074H26.4563L22.9092 40.2546C22.4973 40.6664 22.2705 41.214 22.2705 41.7965C22.2705 42.3788 22.4973 42.9264 22.9092 43.3383L30.9323 51.3614C31.3441 51.7733 31.8917 52.0001 32.4741 52.0001C33.0566 52.0001 33.6042 51.7733 34.016 51.3614L40.025 45.3525C40.2615 45.116 40.2615 44.7326 40.025 44.4961C39.7886 44.2598 39.4052 44.2598 39.1688 44.4961L33.1597 50.5051C32.9766 50.6883 32.7331 50.7891 32.4741 50.7891C32.2152 50.7891 31.9717 50.6883 31.7886 50.5051L23.7654 42.482C23.5823 42.2989 23.4815 42.0554 23.4815 41.7965C23.4815 41.5374 23.5823 41.294 23.7654 41.1109L39.3954 25.4809H47.4723L47.7029 25.7115L46.3028 27.1115C46.0657 26.9978 45.8003 26.9341 45.5202 26.9341C44.5187 26.9341 43.7038 27.7489 43.7038 28.7505C43.7038 29.752 44.5187 30.5668 45.5202 30.5668C46.5218 30.5668 47.3366 29.752 47.3366 28.7505C47.3366 28.4704 47.2728 28.2049 47.1591 27.9678L48.5591 26.5678L48.7897 26.7983V34.8752L43.0218 40.6431C42.7854 40.8795 42.7854 41.2629 43.0218 41.4994C43.2583 41.7358 43.6416 41.7358 43.8781 41.4994L49.8233 35.5542C49.9369 35.4406 50.0007 35.2867 50.0007 35.1261V26.5474C50.0007 26.3869 49.9369 26.2329 49.8233 26.1193L49.4154 25.7114ZM29.8738 31.8641C29.5398 31.8641 29.2682 31.5924 29.2682 31.2585C29.2682 30.9244 29.5398 30.6528 29.8738 30.6528C30.2078 30.6528 30.4794 30.9244 30.4794 31.2585C30.4794 31.5924 30.2078 31.8641 29.8738 31.8641ZM39.1446 24.2699C38.9841 24.2699 38.83 24.3337 38.7165 24.4473L31.6754 31.4884C31.6849 31.413 31.6904 31.3363 31.6904 31.2584C31.6904 30.2567 30.8755 29.4418 29.8739 29.4418C28.8722 29.4418 28.0573 30.2567 28.0573 31.2584C28.0573 32.2601 28.8722 33.075 29.8739 33.075C29.9518 33.075 30.0284 33.0695 30.1038 33.0599L27.6673 35.4964H21.1815C20.6469 35.4964 20.2119 35.0615 20.2119 34.5269V23.1805C20.2119 22.6459 20.6469 22.2109 21.1815 22.2109H43.2856L45.3446 24.2699H39.1446ZM45.5202 29.3558C45.1864 29.3558 44.9147 29.0842 44.9147 28.7503C44.9147 28.4165 45.1864 28.1449 45.5202 28.1449C45.6584 28.1449 45.7855 28.1919 45.8875 28.2701C45.9036 28.2911 45.9207 28.3116 45.9398 28.3307C45.9589 28.3498 45.9794 28.3669 46.0003 28.3829C46.0786 28.485 46.1256 28.6121 46.1256 28.7503C46.1257 29.0842 45.8541 29.3558 45.5202 29.3558Z" fill="#7B7D7E"/>
<path d="M39.1374 38.9118C39.298 38.9118 39.452 38.848 39.5655 38.7344L40.9355 37.3644C41.172 37.128 41.172 36.7446 40.9355 36.5081C40.6991 36.2717 40.3157 36.2717 40.0793 36.5081L39.1374 37.45L36.1405 34.4532C35.9041 34.2168 35.5207 34.2168 35.2843 34.4532C35.0478 34.6896 35.0478 35.073 35.2843 35.3095L38.7093 38.7344C38.8229 38.848 38.9769 38.9118 39.1374 38.9118Z" fill="#7B7D7E"/>
<path d="M43.8469 33.5969C43.6105 33.3605 43.2271 33.3605 42.9906 33.5969L42.22 34.3676L41.3637 33.5114L42.1343 32.7407C42.3708 32.5043 42.3708 32.1209 42.1343 31.8844C41.8979 31.6481 41.5145 31.6481 41.278 31.8844L40.5074 32.6551L39.6512 31.7988L40.4218 31.0282C40.6582 30.7918 40.6583 30.4084 40.4218 30.1719C40.1854 29.9356 39.802 29.9355 39.5655 30.1719L38.3668 31.3706C38.2533 31.4842 38.1895 31.6382 38.1895 31.7988C38.1895 31.9593 38.2533 32.1133 38.3668 32.2269L41.7918 35.6519C41.91 35.77 42.065 35.8292 42.22 35.8292C42.3749 35.8292 42.5299 35.77 42.6481 35.6519L43.8468 34.4531C44.0833 34.2167 44.0833 33.8334 43.8469 33.5969Z" fill="#7B7D7E"/>
<path d="M37.1503 40.5581C37.4481 40.71 37.8128 40.5914 37.9646 40.2935C38.1164 39.9956 37.9979 39.631 37.6999 39.4792L33.1618 37.1673C32.9281 37.0482 32.6443 37.0932 32.4588 37.2787C32.2734 37.4641 32.2284 37.748 32.3475 37.9816L34.6594 42.5197C34.7663 42.7297 34.9788 42.8505 35.1993 42.8505C35.2918 42.8505 35.3857 42.8292 35.4737 42.7844C35.7716 42.6326 35.8901 42.268 35.7384 41.9701L35.5528 41.6056L36.7859 40.3725L37.1503 40.5581ZM34.9747 40.4711L34.2721 39.092L35.6514 39.7946L34.9747 40.4711Z" fill="#7B7D7E"/>
<path d="M31.3456 45.2418C31.1091 45.4783 31.1091 45.8616 31.3456 46.0981C31.4638 46.2163 31.6187 46.2755 31.7737 46.2755C31.9286 46.2755 32.0836 46.2163 32.2018 46.0981L33.0581 45.2419C33.7663 44.5337 33.7663 43.3814 33.0581 42.6731C32.385 42 31.3109 41.9671 30.598 42.5736C30.5758 42.5903 30.5543 42.6081 30.5341 42.6284L30.4893 42.6731C30.3749 42.7875 30.2229 42.8504 30.0612 42.8504C29.8995 42.8504 29.7474 42.7875 29.6331 42.6731C29.397 42.437 29.397 42.0529 29.6331 41.8168L30.4893 40.9606C30.7257 40.7241 30.7258 40.3408 30.4893 40.1043C30.2529 39.8679 29.8695 39.8679 29.6331 40.1043L28.7768 40.9605C28.0686 41.6687 28.0686 42.8211 28.7768 43.5294C29.1199 43.8724 29.576 44.0613 30.0611 44.0613C30.5456 44.0613 31.0012 43.8729 31.3442 43.5306C31.3446 43.5301 31.3451 43.5298 31.3456 43.5294C31.5816 43.2932 31.9657 43.2932 32.2018 43.5294C32.3162 43.6437 32.3791 43.7957 32.3791 43.9574C32.3791 44.1192 32.3162 44.2712 32.2018 44.3855L31.3456 45.2418Z" fill="#7B7D7E"/>
<path d="M29.3739 24.9086C29.0827 24.7443 28.7134 24.847 28.549 25.1382L24.6438 32.0559C24.4794 32.3471 24.5821 32.7164 24.8734 32.8807C24.9674 32.9338 25.0696 32.9591 25.1705 32.9591C25.3818 32.9591 25.5869 32.8483 25.6982 32.6511L29.6035 25.7335C29.7678 25.4423 29.6651 25.0729 29.3739 24.9086Z" fill="#7B7D7E"/>
<path d="M26.579 26.4492C26.579 25.4475 25.7641 24.6326 24.7624 24.6326C23.7608 24.6326 22.9458 25.4475 22.9458 26.4492C22.9458 27.4508 23.7607 28.2658 24.7624 28.2658C25.7641 28.2658 26.579 27.4508 26.579 26.4492ZM24.1567 26.4492C24.1567 26.1152 24.4284 25.8435 24.7624 25.8435C25.0964 25.8435 25.368 26.1152 25.368 26.4492C25.368 26.7832 25.0964 27.0549 24.7624 27.0549C24.4284 27.0549 24.1567 26.7832 24.1567 26.4492Z" fill="#7B7D7E"/>
<path d="M41.5227 42.3921C41.3629 42.3921 41.2073 42.4569 41.0946 42.5696C40.982 42.6821 40.9172 42.8383 40.9172 42.9976C40.9172 43.1569 40.982 43.3131 41.0946 43.4256C41.2073 43.5382 41.3629 43.603 41.5227 43.603C41.6819 43.603 41.8382 43.5383 41.9508 43.4256C42.0634 43.3131 42.1282 43.1569 42.1282 42.9976C42.1282 42.8383 42.0634 42.6821 41.9508 42.5696C41.8382 42.4569 41.6819 42.3921 41.5227 42.3921Z" fill="#7B7D7E"/>
</g>
<defs>
<clipPath id="clip0">
<rect width="31" height="31" fill="white" transform="translate(19 21)"/>
</clipPath>
</defs>
</svg>
