<svg width="11" height="11" viewBox="0 0 11 11" fill="none" xmlns="http://www.w3.org/2000/svg">
<g clip-path="url(#clip0)">
<rect width="11" height="11" rx="5" fill="#929292"/>
<path d="M0.0105572 3.23403C0.0363264 2.64956 0.130842 2.24774 0.266237 1.89956C0.405912 1.52997 0.620798 1.19908 0.902332 0.924009C1.1774 0.644657 1.51048 0.427589 1.87578 0.290096C2.22598 0.154701 2.6257 0.0601848 3.21017 0.0344153C3.79901 0.00646335 3.98594 0 5.4794 0C6.97285 0 7.15979 0.00646335 7.74644 0.0322329C8.33091 0.0580024 8.73273 0.152602 9.08083 0.287913C9.4505 0.427589 9.78139 0.642475 10.0565 0.924009C10.3358 1.19908 10.5528 1.53215 10.6904 1.89746C10.8258 2.24774 10.9203 2.64738 10.9461 3.23185C10.974 3.82068 10.9805 4.00762 10.9805 5.50107C10.9805 6.99453 10.974 7.18146 10.9482 7.76812C10.9225 8.35259 10.8279 8.75441 10.6925 9.10259C10.5528 9.47218 10.3358 9.80307 10.0565 10.0781C9.78139 10.3575 9.44832 10.5746 9.08301 10.7121C8.73273 10.8474 8.33309 10.942 7.74854 10.9677C7.16197 10.9936 6.97495 11 5.48149 11C3.98804 11 3.80111 10.9936 3.21445 10.9677C2.62998 10.942 2.22816 10.8474 1.88006 10.7121C1.14081 10.4262 0.556333 9.84177 0.270518 9.10259C0.135207 8.75231 0.0406075 8.35259 0.0148373 7.76812C-0.010932 7.18146 -0.017395 6.99453 -0.017395 5.50107C-0.017395 4.00762 -0.015213 3.82068 0.0105572 3.23403ZM1.00113 7.72514C1.0248 8.26236 1.11504 8.55245 1.19025 8.74585C1.37508 9.22506 1.75541 9.60539 2.23462 9.79023C2.42802 9.86544 2.72021 9.95567 3.25533 9.97926C3.83552 10.0051 4.00953 10.0115 5.47721 10.0115C6.9449 10.0115 7.12109 10.0051 7.69918 9.97926C8.2364 9.95567 8.52649 9.86544 8.71989 9.79023C8.95836 9.70209 9.17543 9.56241 9.35162 9.37976C9.53427 9.20139 9.67395 8.9865 9.76208 8.74803C9.83729 8.55463 9.92753 8.26236 9.95112 7.72732C9.97697 7.14713 9.98335 6.97304 9.98335 5.50536C9.98335 4.03767 9.97697 3.86148 9.95112 3.28347C9.92753 2.74626 9.83729 2.45616 9.76208 2.26276C9.67395 2.02421 9.53427 1.80722 9.34944 1.63095C9.17115 1.4483 8.95626 1.30862 8.71771 1.22057C8.52431 1.14536 8.23203 1.05512 7.697 1.03145C7.11681 1.00568 6.94272 0.999219 5.47512 0.999219C4.00525 0.999219 3.83124 1.00568 3.25315 1.03145C2.71593 1.05512 2.42584 1.14536 2.23244 1.22057C1.99397 1.30862 1.7769 1.4483 1.60071 1.63095C1.41806 1.80932 1.27838 2.02421 1.19025 2.26276C1.11504 2.45616 1.0248 2.74835 1.00113 3.28347C0.97536 3.86366 0.968896 4.03767 0.968896 5.50536C0.968896 6.97304 0.97536 7.14495 1.00113 7.72514Z" fill="#929292"/>
<path d="M5.47943 2.67529C7.03945 2.67529 8.30518 3.94094 8.30518 5.50104C8.30518 7.06114 7.03945 8.32679 5.47943 8.32679C3.91933 8.32679 2.65368 7.06114 2.65368 5.50104C2.65368 3.94094 3.91933 2.67529 5.47943 2.67529ZM5.47943 7.33403C6.49149 7.33403 7.31242 6.51319 7.31242 5.50104C7.31242 4.48889 6.49149 3.66805 5.47943 3.66805C4.46728 3.66805 3.64644 4.48889 3.64644 5.50104C3.64644 6.51319 4.46728 7.33403 5.47943 7.33403Z" fill="#1F1F1F"/>
<path d="M1.88221 2.56349C1.88221 2.92779 2.17759 3.22317 2.54198 3.22317C2.90628 3.22317 3.20166 2.92779 3.20166 2.56349C3.20166 2.19911 2.90628 1.90381 2.54198 1.90381C2.17759 1.90381 1.88221 2.19911 1.88221 2.56349Z" fill="#1F1F1F"/>
</g>
<defs>
<clipPath id="clip0">
<rect width="11" height="11" fill="white" transform="matrix(-1 0 0 1 11 0)"/>
</clipPath>
</defs>
</svg>
