<svg width="16" height="16" viewBox="0 0 16 16" fill="none" xmlns="http://www.w3.org/2000/svg">
<g clip-path="url(#clip0)">
<rect width="16" height="16" rx="5" fill="#929292"/>
<path d="M0.0154457 4.70404C0.052928 3.8539 0.190406 3.26944 0.387344 2.76299C0.590508 2.22541 0.903069 1.74411 1.31257 1.34401C1.71268 0.937683 2.19714 0.621948 2.7285 0.421957C3.23787 0.22502 3.81929 0.0875415 4.66943 0.0500586C5.52592 0.00940124 5.79782 0 7.97012 0C10.1424 0 10.4143 0.00940124 11.2676 0.0468842C12.1178 0.0843671 12.7022 0.221967 13.2086 0.418783C13.7463 0.621948 14.2276 0.934509 14.6277 1.34401C15.034 1.74411 15.3496 2.22858 15.5497 2.75994C15.7467 3.26944 15.8841 3.85073 15.9216 4.70087C15.9623 5.55736 15.9717 5.82926 15.9717 8.00156C15.9717 10.1739 15.9623 10.4458 15.9248 11.2991C15.8873 12.1492 15.7497 12.7337 15.5528 13.2401C15.3496 13.7777 15.034 14.259 14.6277 14.6591C14.2276 15.0654 13.7431 15.3812 13.2117 15.5812C12.7022 15.7781 12.121 15.9156 11.2707 15.9531C10.4175 15.9907 10.1455 15.9999 7.97317 15.9999C5.80087 15.9999 5.52897 15.9907 4.67566 15.9531C3.82551 15.9156 3.24105 15.7781 2.73472 15.5812C1.65944 15.1654 0.809301 14.3153 0.393571 13.2401C0.196755 12.7306 0.0591555 12.1492 0.0216722 11.2991C-0.015811 10.4458 -0.0252123 10.1739 -0.0252123 8.00156C-0.0252123 5.82926 -0.0220375 5.55736 0.0154457 4.70404ZM1.45628 11.2366C1.49071 12.018 1.62196 12.4399 1.73136 12.7212C2.00021 13.4183 2.55342 13.9715 3.25045 14.2403C3.53176 14.3497 3.95677 14.481 4.73512 14.5153C5.57903 14.5529 5.83213 14.5622 7.96695 14.5622C10.1018 14.5622 10.358 14.5529 11.1989 14.5153C11.9803 14.481 12.4023 14.3497 12.6836 14.2403C13.0304 14.1121 13.3462 13.909 13.6024 13.6433C13.8681 13.3838 14.0713 13.0713 14.1995 12.7244C14.3089 12.4431 14.4401 12.018 14.4744 11.2397C14.512 10.3958 14.5213 10.1426 14.5213 8.00779C14.5213 5.87297 14.512 5.6167 14.4744 4.77596C14.4401 3.99455 14.3089 3.5726 14.1995 3.29129C14.0713 2.9443 13.8681 2.62869 13.5993 2.37229C13.3399 2.10661 13.0274 1.90345 12.6804 1.77537C12.3991 1.66597 11.974 1.53472 11.1957 1.50029C10.3518 1.46281 10.0986 1.45341 7.96389 1.45341C5.8259 1.45341 5.5728 1.46281 4.73194 1.50029C3.95054 1.53472 3.52858 1.66597 3.24728 1.77537C2.90041 1.90345 2.58467 2.10661 2.3284 2.37229C2.06272 2.63174 1.85955 2.9443 1.73136 3.29129C1.62196 3.5726 1.49071 3.99761 1.45628 4.77596C1.41879 5.61987 1.40939 5.87297 1.40939 8.00779C1.40939 10.1426 1.41879 10.3927 1.45628 11.2366Z" fill="#929292"/>
<path d="M7.97088 3.89136C10.24 3.89136 12.0811 5.73229 12.0811 8.00154C12.0811 10.2708 10.24 12.1117 7.97088 12.1117C5.70164 12.1117 3.8607 10.2708 3.8607 8.00154C3.8607 5.73229 5.70164 3.89136 7.97088 3.89136ZM7.97088 10.6677C9.44297 10.6677 10.637 9.47375 10.637 8.00154C10.637 6.52932 9.44297 5.33537 7.97088 5.33537C6.49867 5.33537 5.30471 6.52932 5.30471 8.00154C5.30471 9.47375 6.49867 10.6677 7.97088 10.6677Z" fill="white"/>
<path d="M2.73802 3.72878C2.73802 4.25867 3.16767 4.68832 3.69769 4.68832C4.22758 4.68832 4.65723 4.25867 4.65723 3.72878C4.65723 3.19877 4.22758 2.76924 3.69769 2.76924C3.16767 2.76924 2.73802 3.19877 2.73802 3.72878Z" fill="white"/>
</g>
<defs>
<clipPath id="clip0">
<rect width="16" height="16" fill="white" transform="matrix(-1 0 0 1 16 0)"/>
</clipPath>
</defs>
</svg>
