<svg width="68" height="68" viewBox="0 0 68 68" fill="none" xmlns="http://www.w3.org/2000/svg">
<circle cx="34" cy="34" r="33.5" stroke="#7B7D7E"/>
<g clip-path="url(#clip0)">
<path d="M52.3919 48.7186C52.1725 48.7484 51.9428 48.6714 51.7837 48.4918L49.4773 45.8789C49.0184 45.3613 48.3385 45.1069 47.6532 45.2001L30.6497 47.5127C30.2737 47.5639 29.927 47.3002 29.8759 46.9241C29.8247 46.5481 30.0884 46.2014 30.4644 46.1503L47.4679 43.8376C48.6096 43.6823 49.7453 44.1051 50.508 44.9686L52.8145 47.5815C53.0655 47.8665 53.0385 48.3004 52.7535 48.5514C52.6484 48.6462 52.5226 48.7008 52.3919 48.7186Z" fill="#7B7D7E"/>
<path d="M26.9406 45.2377C26.5646 45.2888 26.2179 45.0251 26.1667 44.6491L23.0245 21.5459C22.9739 21.174 22.6297 20.9086 22.2574 20.9564L16.7865 21.645C16.4099 21.6921 16.0656 21.4253 16.0185 21.0487C15.9715 20.6721 16.2848 20.3228 16.6148 20.2807L22.0857 19.5921C23.203 19.4512 24.2351 20.2448 24.3869 21.3606L27.5292 44.4638C27.5803 44.8398 27.3166 45.1865 26.9406 45.2377Z" fill="#7B7D7E"/>
<path d="M27.8672 52.05C25.6137 52.3565 23.5304 50.772 23.2239 48.5185C22.9174 46.265 24.5018 44.1817 26.7553 43.8752C29.0088 43.5687 31.0921 45.1532 31.3986 47.4067C31.7051 49.6602 30.1207 51.7435 27.8672 52.05ZM26.9406 45.2377C25.4379 45.4421 24.382 46.8304 24.5863 48.3332C24.7907 49.836 26.1791 50.8919 27.6819 50.6875C29.1847 50.4831 30.2406 49.0948 30.0362 47.592C29.8318 46.0892 28.4434 45.0333 26.9406 45.2377Z" fill="#7B7D7E"/>
<path d="M47.3781 42.462L32.5041 44.485C32.1281 44.5362 31.7814 44.2725 31.7303 43.8964C31.6791 43.5204 31.9428 43.1737 32.3188 43.1226L46.5115 41.1922L45.0291 30.2926L28.6796 32.5163L29.9047 41.5235C29.9558 41.8995 29.6921 42.2462 29.3161 42.2973C28.9401 42.3485 28.5935 42.0862 28.5422 41.7088L27.2245 32.0203C27.1733 31.6443 27.437 31.2976 27.8131 31.2465L45.525 28.8375C45.901 28.7863 46.2477 29.05 46.2989 29.426L47.9666 41.6881C48.0178 42.0642 47.7541 42.4109 47.3781 42.462Z" fill="#7B7D7E"/>
<path d="M44.097 38.7454L40.0096 39.3013C39.6336 39.3524 39.2869 39.0888 39.2357 38.7127C39.1846 38.3367 39.4483 37.99 39.8243 37.9388L43.9117 37.3829C44.2877 37.3318 44.6344 37.5955 44.6855 37.9715C44.7367 38.3475 44.473 38.6942 44.097 38.7454Z" fill="#7B7D7E"/>
<path d="M40.2603 30.9413L27.9982 32.6091C27.6221 32.6602 27.2754 32.3965 27.2243 32.0205L25.5565 19.7584C25.5054 19.3823 25.7691 19.0356 26.1451 18.9845L38.4072 17.3167C38.7832 17.2656 39.1299 17.5293 39.1811 17.9053L40.8488 30.1674C40.9 30.5434 40.6363 30.8901 40.2603 30.9413ZM28.4941 31.1539L39.3937 29.6715L37.9113 18.7718L27.0116 20.2543L28.4941 31.1539Z" fill="#7B7D7E"/>
<path d="M36.9796 27.2244L34.2547 27.595C33.8787 27.6461 33.532 27.3825 33.4808 27.0064C33.4297 26.6304 33.6934 26.2837 34.0694 26.2325L36.7943 25.8619C37.1704 25.8108 37.5171 26.0745 37.5682 26.4505C37.6194 26.8265 37.3557 27.1732 36.9796 27.2244Z" fill="#7B7D7E"/>
</g>
<defs>
<clipPath id="clip0">
<rect width="33" height="33" fill="white" transform="translate(15.9268 20.3743) rotate(-7.74526)"/>
</clipPath>
</defs>
</svg>
