<svg width="12" height="12" viewBox="0 0 12 12" fill="none" xmlns="http://www.w3.org/2000/svg">
<path d="M7.34967 4.27428L7.46702 4.55204L7.76745 4.57785L11.2227 4.87469L8.60209 7.14514L8.37419 7.34258L8.44248 7.63627L9.22774 11.0137L6.2587 9.2231L6.00048 9.06738L5.74226 9.2231L2.77322 11.0137L3.55848 7.63627L3.62677 7.34259L3.39888 7.14515L0.777614 4.87407L4.2329 4.57723L4.5333 4.55143L4.65067 4.27369L6.00016 1.08023L7.34967 4.27428ZM11.5659 4.57734C11.5661 4.57719 11.5663 4.57704 11.5664 4.57689L11.5662 4.5771L11.5659 4.57734ZM2.67023 11.4566L2.67023 11.4566L2.67023 11.4566Z" stroke="#FF800C"/>
</svg>
