<svg width="13" height="11" viewBox="0 0 13 11" fill="none" xmlns="http://www.w3.org/2000/svg">
<path d="M12.9253 1.46228C12.8389 1.36777 12.6997 1.34321 12.5862 1.40237C12.4694 1.45542 12.3487 1.49908 12.225 1.53294C12.4179 1.28611 12.5635 1.00577 12.6546 0.706007C12.6946 0.555171 12.6048 0.400387 12.454 0.360301C12.3735 0.338893 12.2876 0.354127 12.2193 0.401924C11.7896 0.634471 11.3329 0.813126 10.8594 0.933811C9.88474 0.0138522 8.40007 -0.100818 7.29565 0.658554C6.44493 1.23376 5.97657 2.2279 6.07476 3.25011C4.23063 3.09297 2.53392 2.17913 1.38791 0.725799C1.32904 0.65458 1.23996 0.615368 1.14768 0.62011C1.0541 0.625727 0.969421 0.677392 0.921597 0.758017C0.532651 1.39382 0.419968 2.16077 0.609592 2.88156C0.706829 3.25191 0.873509 3.60042 1.10078 3.90859C0.998406 3.85846 0.90207 3.79683 0.813657 3.7249C0.692442 3.62657 0.514475 3.64512 0.416126 3.76634C0.375324 3.81665 0.353015 3.87944 0.352988 3.94422C0.369786 4.9899 0.943985 5.94693 1.85875 6.45383C1.73534 6.43867 1.61351 6.41257 1.49474 6.37583C1.34528 6.33086 1.18766 6.41557 1.1427 6.56503C1.12309 6.63023 1.12768 6.70034 1.1556 6.76244C1.55263 7.6518 2.34636 8.30138 3.29669 8.51463C2.39127 9.02546 1.3487 9.24009 0.315127 9.12847C0.181115 9.11135 0.0541515 9.19283 0.0138526 9.32178C-0.0276915 9.44972 0.0266762 9.58919 0.143863 9.65527C1.4094 10.4072 2.84905 10.8163 4.32088 10.8422C5.7329 10.8371 7.11199 10.4153 8.28537 9.62983C10.5254 8.14328 11.9215 5.47428 11.727 3.08621C12.206 2.73168 12.6215 2.29865 12.9559 1.80542C13.0246 1.69732 13.0121 1.55652 12.9253 1.46228Z" fill="#929292"/>
</svg>
