<svg width="17" height="11" viewBox="0 0 17 11" fill="none" xmlns="http://www.w3.org/2000/svg">
<path d="M14.1065 6.22824C13.8316 5.88116 13.9103 5.72674 14.1065 5.41649C14.11 5.41295 16.3788 2.27787 16.6125 1.21466L16.614 1.21396C16.7301 0.826498 16.614 0.541748 16.0522 0.541748H14.1936C13.7204 0.541748 13.5022 0.786123 13.3854 1.05954C13.3854 1.05954 12.439 3.32479 11.1003 4.79316C10.6682 5.21745 10.4685 5.35345 10.2326 5.35345C10.1164 5.35345 9.93579 5.21745 9.93579 4.83V1.21396C9.93579 0.749289 9.80333 0.541748 9.41162 0.541748H6.48904C6.19225 0.541748 6.01587 0.758498 6.01587 0.960373C6.01587 1.40096 6.68525 1.50225 6.75467 2.74183V5.43137C6.75467 6.0207 6.64771 6.12908 6.41042 6.12908C5.77858 6.12908 4.24504 3.85462 3.33625 1.2515C3.15279 0.746456 2.97358 0.542456 2.49688 0.542456H0.6375C0.106958 0.542456 0 0.786831 0 1.06025C0 1.54333 0.631833 3.94529 2.93817 7.11862C4.47525 9.2847 6.63992 10.4584 8.60908 10.4584C9.79271 10.4584 9.93721 10.1977 9.93721 9.74937C9.93721 7.67962 9.83025 7.48412 10.4231 7.48412C10.698 7.48412 11.1711 7.62012 12.2761 8.66491C13.5391 9.90378 13.7466 10.4584 14.4535 10.4584H16.3122C16.842 10.4584 17.1105 10.1977 16.9561 9.68349C16.6026 8.60187 14.2141 6.37699 14.1065 6.22824Z" fill="#929292"/>
</svg>
